<?xml version="1.0" standalone="no"?><!DOCTYPE svg PUBLIC "-//W3C//DTD SVG 1.1//EN" "http://www.w3.org/Graphics/SVG/1.1/DTD/svg11.dtd"><svg t="1628589296137" class="icon" viewBox="0 0 1024 1024" version="1.1" xmlns="http://www.w3.org/2000/svg" p-id="614" width="15" height="15" xmlns:xlink="http://www.w3.org/1999/xlink"><defs><style type="text/css"></style></defs><path d="M847.9 872.7H175.7c-49.6 0-90-40.4-90-90V237.6c0-49.6 40.4-90 90-90h672.2c49.6 0 90 40.4 90 90v545.1c0 49.6-40.4 90-90 90zM175.7 207.6c-16.5 0-30 13.5-30 30v545.1c0 16.5 13.5 30 30 30h672.2c16.5 0 30-13.5 30-30V237.6c0-16.5-13.5-30-30-30H175.7z m306.1 80.7h60v447.5h-60z m-250 0h60v447.5h-60z m385-0.1h40v447.6h-40z m-250 0.2h40v447.3h-40z m365-0.1h60v447.5h-60z" fill="#1296db" p-id="615"></path></svg>