<svg class="icon" viewBox="0 0 1024 1024" version="1.1" xmlns="http://www.w3.org/2000/svg" p-id="1328" height="128" width="128"><path d="M519.602 478.503c27.773 0 50.238 22.528 50.238 50.3s-22.496 50.238-50.238 50.238c-27.772 0-50.269-22.497-50.269-50.238 0-27.772 22.497-50.3 50.27-50.3z m0-66.995c64.792 0 117.357 52.473 117.357 117.295s-52.565 117.325-117.357 117.325c-64.79 0-117.294-52.503-117.294-117.325 0-64.791 52.503-117.295 117.294-117.295z m127.287-143.39c-38.416-18.805-81.672-29.355-127.287-29.355-13.312 0-26.375 0.9-39.222 2.606l-18.928-96.597c22.093-11.016 37.205-33.761 37.205-60.013 0-37.05-30.006-67.056-67.025-67.056-37.02 0-67.026 30.037-67.026 67.056 0 36.057 28.455 65.443 64.14 66.964l18.773 96.07c-49.4 12.629-93.743 37.95-129.334 72.27l-38.478-35.53a37.494 37.494 0 0 0 1.52-10.613c0-20.852-16.849-37.733-37.67-37.733s-37.764 16.88-37.764 37.733c0 20.821 16.911 37.702 37.764 37.702 4.716 0 9.278-0.869 13.467-2.452l38.509 35.53c-27.276 33.11-47.322 72.394-57.779 115.433l-32.489-5.958c-3.785-24.048-24.545-42.45-49.648-42.45-27.741 0-50.27 22.56-50.27 50.27 0 27.803 22.529 50.238 50.27 50.238a50.145 50.145 0 0 0 43.598-25.197l32.55 5.958c-1.427 11.73-2.234 23.707-2.234 35.809 0 50.145 12.723 97.28 35.157 138.395l-137.03 84.992c-12.04-11.605-28.392-18.68-46.359-18.68-37.05 0-67.056 30.006-67.056 67.056 0 36.957 30.006 67.026 67.056 67.026 37.02 0 67.026-30.069 67.026-67.026 0-6.95-1.086-13.715-3.041-20.045l136.999-84.992a289.26 289.26 0 0 0 32.271 38.353c27.927 27.99 61.626 50.3 99.142 64.978l-34.971 106.868c-27.245 0.683-49.121 22.931-49.121 50.27 0 27.802 22.528 50.3 50.331 50.3 27.772 0 50.27-22.498 50.27-50.3 0-16.23-7.696-30.628-19.674-39.813l34.94-106.961c23.645 6.299 48.5 9.62 74.131 9.62 11.264 0 22.311-0.652 33.296-1.894l2.7 15.298c-9.372 6.92-15.485 17.936-15.485 30.472 0 20.821 16.88 37.733 37.702 37.733 20.853 0 37.764-16.88 37.764-37.733 0-17.16-11.419-31.558-27.058-36.181l-2.7-15.267c48.966-11.42 93.153-35.25 129.117-67.988l79.748 78.01c-5.678 9.868-8.937 21.256-8.937 33.513 0 36.988 30.007 66.933 67.026 66.933 37.05 0 66.994-29.945 66.994-66.933 0-37.05-29.944-67.056-66.994-67.056a66.675 66.675 0 0 0-34.754 9.712l-79.717-78.103c41.053-47.01 67.088-107.458 70.873-173.77h102.897c6.888 19.55 25.507 33.482 47.383 33.482 27.803 0 50.3-22.497 50.3-50.238 0-27.772-22.497-50.3-50.3-50.3-21.876 0-40.495 14.026-47.383 33.544H809.177c-3.754-65.692-29.323-125.518-69.632-172.374l157.417-151.986c6.734 3.382 14.429 5.306 22.528 5.306 27.741 0 50.3-22.528 50.3-50.3 0-27.803-22.559-50.238-50.3-50.238-27.741 0-50.27 22.466-50.27 50.238 0 7.478 1.614 14.553 4.531 20.914L716.335 315.625a287.032 287.032 0 0 0-40.216-31.062l42.791-76.179c2.824 0.496 5.71 0.714 8.689 0.714 27.74 0 50.3-22.497 50.269-50.27 0-27.74-22.528-50.268-50.27-50.268-27.803 0-50.3 22.528-50.3 50.269 0 12.691 4.717 24.265 12.475 33.14l-42.884 76.148z" fill="#173993" p-id="1329"></path></svg>